<svg width="234" height="312" viewBox="0 0 234 312" fill="none" xmlns="http://www.w3.org/2000/svg">
<rect y="168" width="234" height="144" fill="url(#paint0_linear_33_3)" fill-opacity="0.2"/>
<rect x="161" y="268" width="2.74095" height="2.74095" fill="#FFEA31"/>
<rect x="11.1" y="6.1" width="210.8" height="289.8" stroke="white" stroke-opacity="0.33" stroke-width="0.2"/>
<rect x="1" width="233" height="312" fill="#CDCDCD" fill-opacity="0.08"/>
<rect width="8" height="1" transform="matrix(-1 0 0 1 222 6)" fill="#D9D9D9"/>
<rect x="11" y="6" width="8" height="1" fill="#D9D9D9"/>
<rect x="11" y="14" width="8" height="1" transform="rotate(-90 11 14)" fill="#D9D9D9"/>
<rect x="222" y="296" width="8" height="1" transform="rotate(180 222 296)" fill="#D9D9D9"/>
<rect x="222" y="288" width="8" height="1" transform="rotate(90 222 288)" fill="#D9D9D9"/>
<rect width="8" height="1" transform="matrix(1 0 0 -1 11 296)" fill="#D9D9D9"/>
<rect width="8" height="1" transform="matrix(-4.37114e-08 1 1 4.37114e-08 11 288)" fill="#D9D9D9"/>
<rect width="8" height="1" transform="matrix(4.37114e-08 -1 -1 -4.37114e-08 222 14)" fill="#D9D9D9"/>
<g filter="url(#filter0_f_33_3)">
<path d="M80.0114 158H69.3554L49.4834 119.888V158H39.4034V100.592H50.2514L69.9314 139.184V100.592H80.0114V158ZM137.552 110.192H111.632V124.688H135.824V134.288H111.632V158H101.552V100.592H137.552V110.192ZM194.782 110.192H179.23V158H169.15V110.192H153.598V100.592H194.782V110.192Z" fill="white"/>
</g>
<path d="M80.0114 158H69.3554L49.4834 119.888V158H39.4034V100.592H50.2514L69.9314 139.184V100.592H80.0114V158ZM137.552 110.192H111.632V124.688H135.824V134.288H111.632V158H101.552V100.592H137.552V110.192ZM194.782 110.192H179.23V158H169.15V110.192H153.598V100.592H194.782V110.192Z" fill="white"/>
<path d="M49.6026 243H48.1466L47.5746 241.349H44.6236L44.0516 243H42.5956L45.3126 235.226H46.8986L49.6026 243ZM47.1456 240.049L46.1056 236.981L45.0526 240.049H47.1456ZM61.2659 241.492C61.1793 241.691 61.0883 241.856 60.9929 241.986C60.4556 242.705 59.9053 243.065 59.3419 243.065H57.7169C57.4309 243.065 57.1623 242.987 56.9109 242.831C56.7809 242.753 56.6119 242.61 56.4039 242.402C56.1959 242.194 56.0486 242.029 55.9619 241.908C55.8233 241.7 55.7539 241.453 55.7539 241.167V237.072C55.7539 236.795 55.8233 236.552 55.9619 236.344C56.0486 236.214 56.1959 236.045 56.4039 235.837C56.6206 235.62 56.7896 235.477 56.9109 235.408C57.1883 235.252 57.4569 235.174 57.7169 235.174H59.3419C59.8966 235.174 60.4469 235.534 60.9929 236.253C61.0449 236.322 61.1359 236.474 61.2659 236.708L59.9399 237.085C59.6799 236.764 59.4849 236.565 59.3549 236.487C59.3463 236.478 59.3289 236.474 59.3029 236.474H57.7689L57.7169 236.487C57.4916 236.608 57.2966 236.799 57.1319 237.059C57.1233 237.076 57.1189 237.124 57.1189 237.202V241.154C57.1189 241.223 57.1883 241.327 57.3269 241.466C57.4743 241.596 57.6043 241.691 57.7169 241.752C57.7256 241.761 57.7559 241.765 57.8079 241.765H59.2899C59.3159 241.765 59.3376 241.761 59.3549 241.752C59.4329 241.717 59.5196 241.648 59.6149 241.544C59.7189 241.44 59.8013 241.345 59.8619 241.258L59.9399 241.141L61.2659 241.492ZM69.5435 243H68.1785V239.789H65.3445V243H63.9795V235.226H65.3445V238.489H68.1785V235.226H69.5435V243ZM78.582 243H77.126L76.554 241.349H73.603L73.031 243H71.575L74.292 235.226H75.878L78.582 243ZM76.125 240.049L75.085 236.981L74.032 240.049H76.125ZM86.1327 243H84.6897L81.9987 237.839V243H80.6337V235.226H82.1027L84.7677 240.452V235.226H86.1327V243ZM94.5617 241.492C94.475 241.691 94.384 241.856 94.2887 241.986C93.7514 242.705 93.201 243.065 92.6377 243.065H91.0127C90.7267 243.065 90.458 242.987 90.2067 242.831C90.0767 242.753 89.9077 242.61 89.6997 242.402C89.4917 242.194 89.3444 242.029 89.2577 241.908C89.119 241.7 89.0497 241.453 89.0497 241.167V237.072C89.0497 236.795 89.119 236.552 89.2577 236.344C89.3444 236.214 89.4917 236.045 89.6997 235.837C89.9164 235.62 90.0854 235.477 90.2067 235.408C90.484 235.252 90.7527 235.174 91.0127 235.174H92.6377C93.1924 235.174 93.7427 235.534 94.2887 236.253C94.3407 236.322 94.4317 236.474 94.5617 236.708L93.2357 237.085C92.9757 236.764 92.7807 236.565 92.6507 236.487C92.642 236.478 92.6247 236.474 92.5987 236.474H91.0647L91.0127 236.487C90.7874 236.608 90.5924 236.799 90.4277 237.059C90.419 237.076 90.4147 237.124 90.4147 237.202V241.154C90.4147 241.223 90.484 241.327 90.6227 241.466C90.77 241.596 90.9 241.691 91.0127 241.752C91.0214 241.761 91.0517 241.765 91.1037 241.765H92.5857C92.6117 241.765 92.6334 241.761 92.6507 241.752C92.7287 241.717 92.8154 241.648 92.9107 241.544C93.0147 241.44 93.097 241.345 93.1577 241.258L93.2357 241.141L94.5617 241.492ZM102.163 243H97.2752V235.226H102.163V236.526H98.6402V238.489H101.916V239.789H98.6402V241.7H102.163V243ZM114.279 236.526H112.173V243H110.808V236.526H108.702V235.226H114.279V236.526ZM122.624 241.154C122.624 241.44 122.554 241.687 122.416 241.895C122.312 242.034 122.156 242.207 121.948 242.415C121.748 242.623 121.588 242.762 121.467 242.831C121.215 242.987 120.947 243.065 120.661 243.065H118.685C118.399 243.065 118.13 242.987 117.879 242.831C117.757 242.762 117.588 242.623 117.372 242.415C117.164 242.198 117.016 242.025 116.93 241.895C116.791 241.687 116.722 241.44 116.722 241.154V237.085C116.722 236.799 116.791 236.552 116.93 236.344C117.016 236.214 117.164 236.045 117.372 235.837C117.588 235.62 117.757 235.477 117.879 235.408C118.13 235.252 118.399 235.174 118.685 235.174H120.661C120.947 235.174 121.215 235.252 121.467 235.408C121.588 235.477 121.748 235.616 121.948 235.824C122.156 236.032 122.312 236.205 122.416 236.344C122.554 236.552 122.624 236.799 122.624 237.085V241.154ZM118.087 237.124V241.141C118.087 241.167 118.091 241.184 118.1 241.193C118.273 241.453 118.464 241.639 118.672 241.752C118.689 241.761 118.711 241.765 118.737 241.765H120.609C120.635 241.765 120.656 241.761 120.674 241.752C120.882 241.639 121.072 241.453 121.246 241.193L121.259 241.141V237.124C121.259 237.089 121.254 237.068 121.246 237.059C121.064 236.79 120.873 236.6 120.674 236.487C120.656 236.478 120.635 236.474 120.609 236.474H118.737C118.702 236.474 118.68 236.478 118.672 236.487C118.472 236.6 118.282 236.79 118.1 237.059L118.087 237.124ZM138.058 235.226L136.251 243H134.704L133.456 237.787L132.195 243H130.635L128.854 235.226H130.258L131.428 240.686L132.715 235.226H134.171L135.458 240.686L136.615 235.226H138.058ZM141.697 243H140.332V235.226H141.697V243ZM150.108 243H148.665L145.974 237.839V243H144.609V235.226H146.078L148.743 240.452V235.226H150.108V243ZM162.012 243H157.124V235.226H162.012V236.526H158.489V238.489H161.765V239.789H158.489V241.7H162.012V243ZM170.991 243H169.535L168.963 241.349H166.012L165.44 243H163.984L166.701 235.226H168.287L170.991 243ZM168.534 240.049L167.494 236.981L166.441 240.049H168.534ZM178.554 238.164C178.554 238.459 178.476 238.723 178.32 238.957C178.26 239.044 178.151 239.165 177.995 239.321C177.839 239.468 177.714 239.577 177.618 239.646C177.506 239.733 177.393 239.793 177.28 239.828L178.827 243H177.345L175.902 239.932H174.407V243H173.042V235.226H176.695C177.042 235.226 177.35 235.321 177.618 235.512C177.887 235.711 178.121 235.95 178.32 236.227C178.476 236.461 178.554 236.725 178.554 237.02V238.164ZM177.189 238.151V237.033C177.189 236.99 177.185 236.959 177.176 236.942C177.029 236.682 176.89 236.543 176.76 236.526H174.407V238.632H176.695C176.756 238.632 176.838 238.584 176.942 238.489C177.046 238.394 177.124 238.298 177.176 238.203C177.185 238.186 177.189 238.168 177.189 238.151ZM186.421 243H181.611V235.226H182.976V241.7H186.421V243ZM193.664 235.226L191.09 239.607V243H189.725V239.607L187.177 235.226H188.685L190.414 238.177L192.143 235.226H193.664ZM32.1999 259H30.7439L30.1719 257.349H27.2209L26.6489 259H25.1929L27.9099 251.226H29.4959L32.1999 259ZM29.7429 256.049L28.7029 252.981L27.6499 256.049H29.7429ZM39.7636 257.492C39.677 257.691 39.586 257.856 39.4906 257.986C38.9533 258.705 38.403 259.065 37.8396 259.065H36.2146C35.9286 259.065 35.66 258.987 35.4086 258.831C35.2786 258.753 35.1096 258.61 34.9016 258.402C34.6936 258.194 34.5463 258.029 34.4596 257.908C34.321 257.7 34.2516 257.453 34.2516 257.167V253.072C34.2516 252.795 34.321 252.552 34.4596 252.344C34.5463 252.214 34.6936 252.045 34.9016 251.837C35.1183 251.62 35.2873 251.477 35.4086 251.408C35.686 251.252 35.9546 251.174 36.2146 251.174H37.8396C38.3943 251.174 38.9446 251.534 39.4906 252.253C39.5426 252.322 39.6336 252.474 39.7636 252.708L38.4376 253.085C38.1776 252.764 37.9826 252.565 37.8526 252.487C37.844 252.478 37.8266 252.474 37.8006 252.474H36.2666L36.2146 252.487C35.9893 252.608 35.7943 252.799 35.6296 253.059C35.621 253.076 35.6166 253.124 35.6166 253.202V257.154C35.6166 257.223 35.686 257.327 35.8246 257.466C35.972 257.596 36.102 257.691 36.2146 257.752C36.2233 257.761 36.2536 257.765 36.3056 257.765H37.7876C37.8136 257.765 37.8353 257.761 37.8526 257.752C37.9306 257.717 38.0173 257.648 38.1126 257.544C38.2166 257.44 38.299 257.345 38.3596 257.258L38.4376 257.141L39.7636 257.492ZM47.9892 257.492C47.9025 257.691 47.8115 257.856 47.7162 257.986C47.1789 258.705 46.6285 259.065 46.0652 259.065H44.4402C44.1542 259.065 43.8855 258.987 43.6342 258.831C43.5042 258.753 43.3352 258.61 43.1272 258.402C42.9192 258.194 42.7719 258.029 42.6852 257.908C42.5465 257.7 42.4772 257.453 42.4772 257.167V253.072C42.4772 252.795 42.5465 252.552 42.6852 252.344C42.7719 252.214 42.9192 252.045 43.1272 251.837C43.3439 251.62 43.5129 251.477 43.6342 251.408C43.9115 251.252 44.1802 251.174 44.4402 251.174H46.0652C46.6199 251.174 47.1702 251.534 47.7162 252.253C47.7682 252.322 47.8592 252.474 47.9892 252.708L46.6632 253.085C46.4032 252.764 46.2082 252.565 46.0782 252.487C46.0695 252.478 46.0522 252.474 46.0262 252.474H44.4922L44.4402 252.487C44.2149 252.608 44.0199 252.799 43.8552 253.059C43.8465 253.076 43.8422 253.124 43.8422 253.202V257.154C43.8422 257.223 43.9115 257.327 44.0502 257.466C44.1975 257.596 44.3275 257.691 44.4402 257.752C44.4489 257.761 44.4792 257.765 44.5312 257.765H46.0132C46.0392 257.765 46.0609 257.761 46.0782 257.752C46.1562 257.717 46.2429 257.648 46.3382 257.544C46.4422 257.44 46.5245 257.345 46.5852 257.258L46.6632 257.141L47.9892 257.492ZM55.5907 259H50.7027V251.226H55.5907V252.526H52.0677V254.489H55.3437V255.789H52.0677V257.7H55.5907V259ZM64.1919 257.154C64.1919 257.457 64.1225 257.704 63.9839 257.895C63.8972 258.025 63.7499 258.198 63.5419 258.415C63.3339 258.623 63.1649 258.762 63.0349 258.831C62.7575 258.987 62.4889 259.065 62.2289 259.065H59.9669C59.4035 259.065 58.8532 258.705 58.3159 257.986C58.2639 257.917 58.1859 257.782 58.0819 257.583L59.3689 257.154C59.5422 257.397 59.7329 257.596 59.9409 257.752C59.9582 257.761 59.9885 257.765 60.0319 257.765H62.1639L62.2419 257.752C62.3372 257.7 62.4585 257.6 62.6059 257.453C62.7532 257.306 62.8269 257.206 62.8269 257.154V256.387C62.8269 256.257 62.7749 256.183 62.6709 256.166L59.2909 255.204C58.9702 255.117 58.7189 254.94 58.5369 254.671C58.3635 254.402 58.2769 254.108 58.2769 253.787V253.085C58.2769 252.782 58.3419 252.535 58.4719 252.344C58.5585 252.223 58.7059 252.058 58.9139 251.85C59.1305 251.633 59.3039 251.486 59.4339 251.408C59.7112 251.252 59.9799 251.174 60.2399 251.174H62.1639C62.7185 251.174 63.2689 251.534 63.8149 252.253C63.9015 252.374 63.9882 252.526 64.0749 252.708L62.7619 253.085C62.5625 252.799 62.3719 252.6 62.1899 252.487C62.1812 252.478 62.1552 252.474 62.1119 252.474H60.2789L60.2009 252.487C60.0969 252.539 59.9755 252.634 59.8369 252.773C59.7069 252.912 59.6419 253.007 59.6419 253.059V253.709C59.6419 253.839 59.6895 253.913 59.7849 253.93L63.1779 254.918C63.4899 255.005 63.7369 255.187 63.9189 255.464C64.1009 255.733 64.1919 256.023 64.1919 256.335V257.154ZM72.6586 257.154C72.6586 257.457 72.5893 257.704 72.4506 257.895C72.364 258.025 72.2166 258.198 72.0086 258.415C71.8006 258.623 71.6316 258.762 71.5016 258.831C71.2243 258.987 70.9556 259.065 70.6956 259.065H68.4336C67.8703 259.065 67.32 258.705 66.7826 257.986C66.7306 257.917 66.6526 257.782 66.5486 257.583L67.8356 257.154C68.009 257.397 68.1996 257.596 68.4076 257.752C68.425 257.761 68.4553 257.765 68.4986 257.765H70.6306L70.7086 257.752C70.804 257.7 70.9253 257.6 71.0726 257.453C71.22 257.306 71.2936 257.206 71.2936 257.154V256.387C71.2936 256.257 71.2416 256.183 71.1376 256.166L67.7576 255.204C67.437 255.117 67.1856 254.94 67.0036 254.671C66.8303 254.402 66.7436 254.108 66.7436 253.787V253.085C66.7436 252.782 66.8086 252.535 66.9386 252.344C67.0253 252.223 67.1726 252.058 67.3806 251.85C67.5973 251.633 67.7706 251.486 67.9006 251.408C68.178 251.252 68.4466 251.174 68.7066 251.174H70.6306C71.1853 251.174 71.7356 251.534 72.2816 252.253C72.3683 252.374 72.455 252.526 72.5416 252.708L71.2286 253.085C71.0293 252.799 70.8386 252.6 70.6566 252.487C70.648 252.478 70.622 252.474 70.5786 252.474H68.7456L68.6676 252.487C68.5636 252.539 68.4423 252.634 68.3036 252.773C68.1736 252.912 68.1086 253.007 68.1086 253.059V253.709C68.1086 253.839 68.1563 253.913 68.2516 253.93L71.6446 254.918C71.9566 255.005 72.2036 255.187 72.3856 255.464C72.5676 255.733 72.6586 256.023 72.6586 256.335V257.154ZM84.64 252.526H82.534V259H81.169V252.526H79.063V251.226H84.64V252.526ZM92.9847 257.154C92.9847 257.44 92.9154 257.687 92.7767 257.895C92.6727 258.034 92.5167 258.207 92.3087 258.415C92.1094 258.623 91.9491 258.762 91.8277 258.831C91.5764 258.987 91.3077 259.065 91.0217 259.065H89.0457C88.7597 259.065 88.4911 258.987 88.2397 258.831C88.1184 258.762 87.9494 258.623 87.7327 258.415C87.5247 258.198 87.3774 258.025 87.2907 257.895C87.1521 257.687 87.0827 257.44 87.0827 257.154V253.085C87.0827 252.799 87.1521 252.552 87.2907 252.344C87.3774 252.214 87.5247 252.045 87.7327 251.837C87.9494 251.62 88.1184 251.477 88.2397 251.408C88.4911 251.252 88.7597 251.174 89.0457 251.174H91.0217C91.3077 251.174 91.5764 251.252 91.8277 251.408C91.9491 251.477 92.1094 251.616 92.3087 251.824C92.5167 252.032 92.6727 252.205 92.7767 252.344C92.9154 252.552 92.9847 252.799 92.9847 253.085V257.154ZM88.4477 253.124V257.141C88.4477 257.167 88.4521 257.184 88.4607 257.193C88.6341 257.453 88.8247 257.639 89.0327 257.752C89.0501 257.761 89.0717 257.765 89.0977 257.765H90.9697C90.9957 257.765 91.0174 257.761 91.0347 257.752C91.2427 257.639 91.4334 257.453 91.6067 257.193L91.6197 257.141V253.124C91.6197 253.089 91.6154 253.068 91.6067 253.059C91.4247 252.79 91.2341 252.6 91.0347 252.487C91.0174 252.478 90.9957 252.474 90.9697 252.474H89.0977C89.0631 252.474 89.0414 252.478 89.0327 252.487C88.8334 252.6 88.6427 252.79 88.4607 253.059L88.4477 253.124ZM109.422 257.154C109.422 257.44 109.353 257.687 109.214 257.895C109.11 258.034 108.954 258.207 108.746 258.415C108.547 258.623 108.386 258.762 108.265 258.831C108.014 258.987 107.745 259.065 107.459 259.065H105.483C105.197 259.065 104.928 258.987 104.677 258.831C104.556 258.762 104.387 258.623 104.17 258.415C103.962 258.198 103.815 258.025 103.728 257.895C103.589 257.687 103.52 257.44 103.52 257.154V253.085C103.52 252.799 103.589 252.552 103.728 252.344C103.815 252.214 103.962 252.045 104.17 251.837C104.387 251.62 104.556 251.477 104.677 251.408C104.928 251.252 105.197 251.174 105.483 251.174H107.459C107.745 251.174 108.014 251.252 108.265 251.408C108.386 251.477 108.547 251.616 108.746 251.824C108.954 252.032 109.11 252.205 109.214 252.344C109.353 252.552 109.422 252.799 109.422 253.085V257.154ZM104.885 253.124V257.141C104.885 257.167 104.889 257.184 104.898 257.193C105.071 257.453 105.262 257.639 105.47 257.752C105.487 257.761 105.509 257.765 105.535 257.765H107.407C107.433 257.765 107.455 257.761 107.472 257.752C107.68 257.639 107.871 257.453 108.044 257.193L108.057 257.141V253.124C108.057 253.089 108.053 253.068 108.044 253.059C107.862 252.79 107.671 252.6 107.472 252.487C107.455 252.478 107.433 252.474 107.407 252.474H105.535C105.5 252.474 105.479 252.478 105.47 252.487C105.271 252.6 105.08 252.79 104.898 253.059L104.885 253.124ZM116.284 257.141V251.226H117.649V257.154C117.649 257.44 117.58 257.687 117.441 257.895C117.346 258.025 117.194 258.198 116.986 258.415C116.787 258.623 116.622 258.762 116.492 258.831C116.241 258.987 115.977 259.065 115.699 259.065H114.048C113.762 259.065 113.494 258.987 113.242 258.831C113.121 258.762 112.952 258.623 112.735 258.415C112.527 258.198 112.38 258.025 112.293 257.895C112.155 257.687 112.085 257.44 112.085 257.154V251.226H113.45V257.128C113.45 257.163 113.455 257.184 113.463 257.193C113.645 257.462 113.836 257.648 114.035 257.752L114.1 257.765H115.647C115.673 257.765 115.695 257.761 115.712 257.752C115.912 257.648 116.098 257.462 116.271 257.193L116.284 257.141ZM125.965 254.164C125.965 254.459 125.887 254.723 125.731 254.957C125.671 255.044 125.562 255.165 125.406 255.321C125.25 255.468 125.125 255.577 125.029 255.646C124.917 255.733 124.804 255.793 124.691 255.828L126.238 259H124.756L123.313 255.932H121.818V259H120.453V251.226H124.106C124.453 251.226 124.761 251.321 125.029 251.512C125.298 251.711 125.532 251.95 125.731 252.227C125.887 252.461 125.965 252.725 125.965 253.02V254.164ZM124.6 254.151V253.033C124.6 252.99 124.596 252.959 124.587 252.942C124.44 252.682 124.301 252.543 124.171 252.526H121.818V254.632H124.106C124.167 254.632 124.249 254.584 124.353 254.489C124.457 254.394 124.535 254.298 124.587 254.203C124.596 254.186 124.6 254.168 124.6 254.151ZM141.675 251.226L139.868 259H138.321L137.073 253.787L135.812 259H134.252L132.471 251.226H133.875L135.045 256.686L136.332 251.226H137.788L139.075 256.686L140.232 251.226H141.675ZM148.569 259H143.759V251.226H145.124V257.7H148.569V259ZM156.51 253.085V257.154C156.51 257.223 156.579 257.327 156.718 257.466C156.865 257.596 156.995 257.691 157.108 257.752H157.121C157.138 257.761 157.155 257.765 157.173 257.765H158.941L159.006 257.752C159.11 257.691 159.235 257.587 159.383 257.44C159.53 257.293 159.604 257.184 159.604 257.115V255.854H157.927V254.554H160.969V257.18C161.029 257.752 161.112 258.359 161.216 259H159.877L159.812 258.688C159.456 258.939 159.188 259.065 159.006 259.065H157.108C156.822 259.065 156.553 258.987 156.302 258.831C156.172 258.753 156.003 258.614 155.795 258.415C155.587 258.207 155.439 258.042 155.353 257.921C155.214 257.713 155.145 257.462 155.145 257.167V253.059C155.145 252.773 155.214 252.526 155.353 252.318C155.439 252.188 155.587 252.019 155.795 251.811C156.011 251.594 156.18 251.451 156.302 251.382C156.536 251.235 156.804 251.161 157.108 251.161H159.006C159.604 251.161 160.154 251.521 160.657 252.24C160.787 252.422 160.878 252.574 160.93 252.695L159.617 253.072C159.426 252.812 159.222 252.613 159.006 252.474C158.997 252.465 158.975 252.461 158.941 252.461H157.173L157.108 252.474C156.874 252.604 156.679 252.79 156.523 253.033L156.51 253.085ZM168.842 259H163.954V251.226H168.842V252.526H165.319V254.489H168.595V255.789H165.319V257.7H168.842V259ZM177.196 259H175.753L173.062 253.839V259H171.697V251.226H173.166L175.831 256.452V251.226H177.196V259ZM185.001 259H180.113V251.226H185.001V252.526H181.478V254.489H184.754V255.789H181.478V257.7H185.001V259ZM193.602 257.154C193.602 257.457 193.533 257.704 193.394 257.895C193.308 258.025 193.16 258.198 192.952 258.415C192.744 258.623 192.575 258.762 192.445 258.831C192.168 258.987 191.899 259.065 191.639 259.065H189.377C188.814 259.065 188.264 258.705 187.726 257.986C187.674 257.917 187.596 257.782 187.492 257.583L188.779 257.154C188.953 257.397 189.143 257.596 189.351 257.752C189.369 257.761 189.399 257.765 189.442 257.765H191.574L191.652 257.752C191.748 257.7 191.869 257.6 192.016 257.453C192.164 257.306 192.237 257.206 192.237 257.154V256.387C192.237 256.257 192.185 256.183 192.081 256.166L188.701 255.204C188.381 255.117 188.129 254.94 187.947 254.671C187.774 254.402 187.687 254.108 187.687 253.787V253.085C187.687 252.782 187.752 252.535 187.882 252.344C187.969 252.223 188.116 252.058 188.324 251.85C188.541 251.633 188.714 251.486 188.844 251.408C189.122 251.252 189.39 251.174 189.65 251.174H191.574C192.129 251.174 192.679 251.534 193.225 252.253C193.312 252.374 193.399 252.526 193.485 252.708L192.172 253.085C191.973 252.799 191.782 252.6 191.6 252.487C191.592 252.478 191.566 252.474 191.522 252.474H189.689L189.611 252.487C189.507 252.539 189.386 252.634 189.247 252.773C189.117 252.912 189.052 253.007 189.052 253.059V253.709C189.052 253.839 189.1 253.913 189.195 253.93L192.588 254.918C192.9 255.005 193.147 255.187 193.329 255.464C193.511 255.733 193.602 256.023 193.602 256.335V257.154ZM197.688 259H196.323V251.226H197.688V259ZM206.346 257.154C206.346 257.457 206.277 257.704 206.138 257.895C206.052 258.025 205.904 258.198 205.696 258.415C205.488 258.623 205.319 258.762 205.189 258.831C204.912 258.987 204.643 259.065 204.383 259.065H202.121C201.558 259.065 201.008 258.705 200.47 257.986C200.418 257.917 200.34 257.782 200.236 257.583L201.523 257.154C201.697 257.397 201.887 257.596 202.095 257.752C202.113 257.761 202.143 257.765 202.186 257.765H204.318L204.396 257.752C204.492 257.7 204.613 257.6 204.76 257.453C204.908 257.306 204.981 257.206 204.981 257.154V256.387C204.981 256.257 204.929 256.183 204.825 256.166L201.445 255.204C201.125 255.117 200.873 254.94 200.691 254.671C200.518 254.402 200.431 254.108 200.431 253.787V253.085C200.431 252.782 200.496 252.535 200.626 252.344C200.713 252.223 200.86 252.058 201.068 251.85C201.285 251.633 201.458 251.486 201.588 251.408C201.866 251.252 202.134 251.174 202.394 251.174H204.318C204.873 251.174 205.423 251.534 205.969 252.253C206.056 252.374 206.143 252.526 206.229 252.708L204.916 253.085C204.717 252.799 204.526 252.6 204.344 252.487C204.336 252.478 204.31 252.474 204.266 252.474H202.433L202.355 252.487C202.251 252.539 202.13 252.634 201.991 252.773C201.861 252.912 201.796 253.007 201.796 253.059V253.709C201.796 253.839 201.844 253.913 201.939 253.93L205.332 254.918C205.644 255.005 205.891 255.187 206.073 255.464C206.255 255.733 206.346 256.023 206.346 256.335V257.154ZM88.9315 269.683L88.7105 270.918H87.6185L87.4885 271.62H88.5805L88.3595 272.842H87.2675L87.0335 274.077H85.7595L85.9935 272.842H85.4605L85.2265 274.077H83.9525L84.1735 272.842H83.0945L83.3155 271.62H84.4075L84.5375 270.918H83.4455L83.6665 269.683H84.7585L84.9795 268.5H86.2535L86.0325 269.683H86.5655L86.7865 268.5H88.0605L87.8395 269.683H88.9315ZM86.3445 270.918H85.8115L85.6815 271.62H86.2145L86.3445 270.918ZM96.9159 275H95.4729L92.7819 269.839V275H91.4169V267.226H92.8859L95.5509 272.452V267.226H96.9159V275ZM104.708 268.526H101.198V270.489H104.474V271.789H101.198V275H99.8328V267.226H104.708V268.526ZM112.458 268.526H110.352V275H108.987V268.526H106.881V267.226H112.458V268.526ZM125.708 275H124.343V269.683L122.796 273.089H121.899L120.352 269.696V275H118.987V267.226H120.547L122.367 271.061L124.161 267.226H125.708V275ZM129.987 275H128.622V267.226H129.987V275ZM138.398 275H136.955L134.264 269.839V275H132.899V267.226H134.368L137.033 272.452V267.226H138.398V275ZM146.476 268.526H144.37V275H143.005V268.526H140.899V267.226H146.476V268.526ZM149.858 275H148.259V273.362H149.858V275Z" fill="white"/>
<defs>
<filter id="filter0_f_33_3" x="35.4033" y="96.592" width="163.378" height="65.408" filterUnits="userSpaceOnUse" color-interpolation-filters="sRGB">
<feFlood flood-opacity="0" result="BackgroundImageFix"/>
<feBlend mode="normal" in="SourceGraphic" in2="BackgroundImageFix" result="shape"/>
<feGaussianBlur stdDeviation="2" result="effect1_foregroundBlur_33_3"/>
</filter>
<linearGradient id="paint0_linear_33_3" x1="117" y1="194.761" x2="117" y2="392" gradientUnits="userSpaceOnUse">
<stop stop-color="#D9D9D9" stop-opacity="0"/>
<stop offset="1" stop-color="#FFEA31"/>
</linearGradient>
</defs>
</svg>
